<svg width="50" height="50" viewBox="0 0 50 50" fill="none" xmlns="http://www.w3.org/2000/svg">
<path d="M19.4568 18.0435C19.0663 17.653 18.4331 17.653 18.0426 18.0435C17.652 18.4341 17.652 19.0672 18.0426 19.4578L19.4568 18.0435ZM22.9163 22.9173L22.2092 23.6244C22.5998 24.0149 23.2329 24.0149 23.6234 23.6244L22.9163 22.9173ZM31.9568 15.2911C32.3473 14.9006 32.3473 14.2674 31.9568 13.8769C31.5663 13.4864 30.9331 13.4864 30.5426 13.8769L31.9568 15.2911ZM40.698 44.8922L41.6709 44.6605L40.698 44.8922ZM37.8363 47.2834L37.4355 48.1995L37.8363 47.2834ZM25.8347 42.0326L26.2355 41.1165L26.2355 41.1165L25.8347 42.0326ZM24.1646 42.0326L23.7638 41.1165L24.1646 42.0326ZM12.163 47.2834L12.5638 48.1995L12.5638 48.1995L12.163 47.2834ZM9.3013 44.8922L8.3285 44.6605H8.3285L9.3013 44.8922ZM37.182 30.1248L36.4512 29.4422L37.182 30.1248ZM12.8173 30.1248L13.5481 29.4422L12.8173 30.1248ZM9.33301 18.7507C9.33301 10.0982 16.3472 3.08398 24.9997 3.08398V1.08398C15.2426 1.08398 7.33301 8.99362 7.33301 18.7507H9.33301ZM24.9997 3.08398C33.6521 3.08398 40.6663 10.0982 40.6663 18.7507H42.6663C42.6663 8.99362 34.7567 1.08398 24.9997 1.08398V3.08398ZM18.0426 19.4578L22.2092 23.6244L23.6234 22.2102L19.4568 18.0435L18.0426 19.4578ZM23.6234 23.6244L31.9568 15.2911L30.5426 13.8769L22.2092 22.2102L23.6234 23.6244ZM38.2371 46.3672L26.2355 41.1165L25.4339 42.9488L37.4355 48.1995L38.2371 46.3672ZM23.7638 41.1165L11.7622 46.3672L12.5638 48.1995L24.5655 42.9488L23.7638 41.1165ZM11.7622 46.3672C10.9431 46.7255 10.067 45.9935 10.2741 45.1238L8.3285 44.6605C7.73912 47.1359 10.2326 49.2194 12.5638 48.1995L11.7622 46.3672ZM26.2355 41.1165C25.4477 40.7718 24.5517 40.7718 23.7638 41.1165L24.5655 42.9488C24.8423 42.8277 25.1571 42.8277 25.4339 42.9488L26.2355 41.1165ZM39.7252 45.1238C39.9323 45.9935 39.0562 46.7255 38.2371 46.3672L37.4355 48.1995C39.7667 49.2194 42.2602 47.1359 41.6709 44.6605L39.7252 45.1238ZM36.2092 30.3564L39.7252 45.1238L41.6709 44.6605L38.1548 29.8932L36.2092 30.3564ZM40.6663 18.7507C40.6663 22.8841 39.0669 26.6418 36.4512 29.4422L37.9128 30.8074C40.8607 27.6513 42.6663 23.4107 42.6663 18.7507H40.6663ZM36.4512 29.4422C33.5905 32.5049 29.5192 34.4173 24.9997 34.4173V36.4173C30.0961 36.4173 34.6897 34.2581 37.9128 30.8074L36.4512 29.4422ZM10.2741 45.1238L13.7902 30.3564L11.8445 29.8932L8.3285 44.6605L10.2741 45.1238ZM24.9997 34.4173C20.4802 34.4173 16.4089 32.5049 13.5481 29.4422L12.0866 30.8074C15.3097 34.2581 19.9033 36.4173 24.9997 36.4173V34.4173ZM13.5481 29.4422C10.9325 26.6418 9.33301 22.8841 9.33301 18.7507H7.33301C7.33301 23.4107 9.13864 27.6513 12.0866 30.8074L13.5481 29.4422Z" fill="#407D80"/>
</svg>
