<svg width="24" height="24" viewBox="0 0 24 24" fill="none" xmlns="http://www.w3.org/2000/svg">
<path d="M10.9999 16.1673C10.9999 16.7196 11.4476 17.1673 11.9999 17.1673C12.5522 17.1673 12.9999 16.7196 12.9999 16.1673H10.9999ZM12.9999 15.0005C12.9999 14.4482 12.5522 14.0005 11.9999 14.0005C11.4476 14.0005 10.9999 14.4482 10.9999 15.0005H12.9999ZM10.9999 12.0007C10.9999 12.5529 11.4476 13.0007 11.9999 13.0007C12.5522 13.0007 12.9999 12.5529 12.9999 12.0007H10.9999ZM12.9999 7.83398C12.9999 7.2817 12.5522 6.83398 11.9999 6.83398C11.4476 6.83398 10.9999 7.2817 10.9999 7.83398H12.9999ZM20.1666 12.0007C20.1666 16.511 16.5102 20.1673 11.9999 20.1673V22.1673C17.6148 22.1673 22.1666 17.6155 22.1666 12.0007H20.1666ZM11.9999 20.1673C7.48959 20.1673 3.83325 16.511 3.83325 12.0007H1.83325C1.83325 17.6155 6.38502 22.1673 11.9999 22.1673V20.1673ZM3.83325 12.0007C3.83325 7.49033 7.48959 3.83398 11.9999 3.83398V1.83398C6.38502 1.83398 1.83325 6.38576 1.83325 12.0007H3.83325ZM11.9999 3.83398C16.5102 3.83398 20.1666 7.49033 20.1666 12.0007H22.1666C22.1666 6.38576 17.6148 1.83398 11.9999 1.83398V3.83398ZM12.9999 16.1673V15.0005H10.9999V16.1673H12.9999ZM12.9999 12.0007V7.83398H10.9999V12.0007H12.9999Z" fill="#806E40"/>
</svg>
