<svg width="24" height="24" viewBox="0 0 24 24" fill="none" xmlns="http://www.w3.org/2000/svg">
<path d="M9.37369 10.4602C8.98317 10.0697 8.35 10.0697 7.95948 10.4602C7.56895 10.8507 7.56895 11.4839 7.95948 11.8744L9.37369 10.4602ZM11.9999 14.5007L11.2928 15.2078C11.6833 15.5983 12.3165 15.5983 12.707 15.2078L11.9999 14.5007ZM20.207 7.70776C20.5976 7.31723 20.5976 6.68407 20.207 6.29354C19.8165 5.90302 19.1833 5.90302 18.7928 6.29354L20.207 7.70776ZM16.4537 5.1541C16.9164 5.45574 17.5359 5.32523 17.8376 4.8626C18.1392 4.39997 18.0087 3.7804 17.5461 3.47876L16.4537 5.1541ZM21.999 10.1533C21.8992 9.61013 21.378 9.25066 20.8348 9.35044C20.2916 9.45022 19.9321 9.97145 20.0319 10.5146L21.999 10.1533ZM7.95948 11.8744L11.2928 15.2078L12.707 13.7935L9.37369 10.4602L7.95948 11.8744ZM12.707 15.2078L20.207 7.70776L18.7928 6.29354L11.2928 13.7935L12.707 15.2078ZM20.1666 12.0007C20.1666 16.511 16.5102 20.1673 11.9999 20.1673V22.1673C17.6148 22.1673 22.1666 17.6155 22.1666 12.0007H20.1666ZM11.9999 20.1673C7.48959 20.1673 3.83325 16.511 3.83325 12.0007H1.83325C1.83325 17.6155 6.38502 22.1673 11.9999 22.1673V20.1673ZM3.83325 12.0007C3.83325 7.49033 7.48959 3.83398 11.9999 3.83398V1.83398C6.38502 1.83398 1.83325 6.38576 1.83325 12.0007H3.83325ZM11.9999 3.83398C13.6448 3.83398 15.1733 4.31923 16.4537 5.1541L17.5461 3.47876C15.9506 2.43847 14.0443 1.83398 11.9999 1.83398V3.83398ZM20.0319 10.5146C20.1203 10.9958 20.1666 11.4924 20.1666 12.0007H22.1666C22.1666 11.3706 22.1092 10.7531 21.999 10.1533L20.0319 10.5146Z" fill="#498040"/>
</svg>
