<svg width="34" height="34" viewBox="0 0 34 34" fill="none" xmlns="http://www.w3.org/2000/svg">
<path d="M17 32.5C8.43959 32.5 1.5 25.5604 1.5 17H0.5C0.5 26.1127 7.8873 33.5 17 33.5V32.5ZM1.5 17C1.5 8.43959 8.43959 1.5 17 1.5V0.5C7.8873 0.5 0.5 7.8873 0.5 17H1.5ZM17 1.5C25.5604 1.5 32.5 8.43959 32.5 17H33.5C33.5 7.8873 26.1127 0.5 17 0.5V1.5ZM32.5 17C32.5 25.5604 25.5604 32.5 17 32.5V33.5C26.1127 33.5 33.5 26.1127 33.5 17H32.5Z" fill="#407D80"/>
<path fill-rule="evenodd" clip-rule="evenodd" d="M10.2173 23.8054L13.2103 23.0203L13.499 23.1917C14.7131 23.9121 16.1049 24.2934 17.5239 24.2939H17.5271C21.8856 24.2939 25.433 20.7465 25.4347 16.3862C25.4355 14.2732 24.6138 12.2864 23.1208 10.7917C21.6278 9.29696 19.6423 8.47339 17.5302 8.47266C13.1683 8.47266 9.62087 12.0198 9.61914 16.3797C9.61853 17.8739 10.0366 19.3291 10.8282 20.5881L11.0162 20.8873L10.2173 23.8054ZM21.9943 18.4359C22.1601 18.516 22.2721 18.5701 22.3199 18.6499C22.3793 18.749 22.3793 19.225 22.1813 19.7804C21.9831 20.3357 21.0334 20.8425 20.5766 20.9107C20.1671 20.9719 19.6488 20.9975 19.0793 20.8165C18.7341 20.707 18.2913 20.5607 17.7241 20.3157C15.4955 19.3534 13.9894 17.1934 13.7047 16.7852C13.6848 16.7566 13.6709 16.7366 13.6631 16.7262L13.6612 16.7236C13.5354 16.5558 12.6924 15.431 12.6924 14.267C12.6924 13.172 13.2303 12.598 13.4779 12.3338C13.4948 12.3157 13.5104 12.2991 13.5244 12.2838C13.7423 12.0458 13.9999 11.9863 14.1583 11.9863C14.3168 11.9863 14.4755 11.9878 14.614 11.9947C14.631 11.9956 14.6488 11.9955 14.6672 11.9954C14.8057 11.9946 14.9784 11.9936 15.1488 12.4028C15.2144 12.5603 15.3103 12.7938 15.4115 13.0401C15.616 13.5381 15.842 14.0883 15.8818 14.168C15.9412 14.287 15.9808 14.4257 15.9016 14.5845C15.8897 14.6083 15.8787 14.6307 15.8682 14.6522C15.8087 14.7737 15.7649 14.8631 15.6639 14.981C15.6242 15.0274 15.5831 15.0774 15.542 15.1274C15.4603 15.227 15.3785 15.3266 15.3073 15.3975C15.1883 15.516 15.0644 15.6447 15.2031 15.8827C15.3417 16.1207 15.8188 16.8991 16.5255 17.5295C17.2852 18.2071 17.9455 18.4935 18.2802 18.6387C18.3455 18.667 18.3985 18.69 18.4373 18.7094C18.6749 18.8284 18.8136 18.8085 18.9523 18.6499C19.091 18.4913 19.5466 17.9557 19.705 17.7178C19.8635 17.4799 20.022 17.5195 20.2399 17.5988C20.4578 17.6782 21.6266 18.2532 21.8643 18.3722C21.9107 18.3955 21.9541 18.4164 21.9943 18.4359Z" fill="#407D80"/>
</svg>