<svg width="50" height="50" viewBox="0 0 50 50" fill="none" xmlns="http://www.w3.org/2000/svg">
<path d="M2.2125 17.1164L3.19177 16.9138L2.2125 17.1164ZM6.60431 38.3435L7.58357 38.1409L6.60431 38.3435ZM43.3958 38.3435L44.3751 38.5461L43.3958 38.3435ZM47.7876 17.1164L46.8083 16.9138V16.9138L47.7876 17.1164ZM44.446 15.0675L45.0707 15.8484L44.446 15.0675ZM39.659 18.8971L39.0343 18.1162L39.659 18.8971ZM30.0434 16.5551L29.1295 16.9612V16.9612L30.0434 16.5551ZM26.9038 9.49112L27.8176 9.08498L27.8176 9.08498L26.9038 9.49112ZM23.0963 9.49112L22.1825 9.08498V9.08498L23.0963 9.49112ZM19.9568 16.555L20.8706 16.9612V16.9612L19.9568 16.555ZM10.3411 18.8971L10.9658 18.1162L10.3411 18.8971ZM5.55408 15.0675L4.92939 15.8484L5.55408 15.0675ZM1.23324 17.319L5.62505 38.5461L7.58357 38.1409L3.19177 16.9138L1.23324 17.319ZM10.6846 42.666H39.3155V40.666H10.6846V42.666ZM44.3751 38.5461L48.7669 17.319L46.8083 16.9138L42.4165 38.1409L44.3751 38.5461ZM43.8213 14.2866L39.0343 18.1162L40.2837 19.678L45.0707 15.8484L43.8213 14.2866ZM30.9572 16.1489L27.8176 9.08498L25.99 9.89726L29.1295 16.9612L30.9572 16.1489ZM22.1825 9.08498L19.0429 16.1489L20.8706 16.9612L24.0101 9.89725L22.1825 9.08498ZM10.9658 18.1162L6.17878 14.2866L4.92939 15.8484L9.71639 19.678L10.9658 18.1162ZM19.0429 16.1489C17.6456 19.2929 13.6524 20.2655 10.9658 18.1162L9.71639 19.678C13.4265 22.646 18.9409 21.3029 20.8706 16.9612L19.0429 16.1489ZM27.8176 9.08498C26.7326 6.64356 23.2676 6.64354 22.1825 9.08498L24.0101 9.89725C24.3913 9.03946 25.6088 9.03945 25.99 9.89726L27.8176 9.08498ZM39.0343 18.1162C36.3477 20.2655 32.3545 19.2929 30.9572 16.1489L29.1295 16.9612C31.0592 21.3029 36.5736 22.646 40.2837 19.678L39.0343 18.1162ZM48.7669 17.319C49.352 14.4909 46.0765 12.4825 43.8213 14.2866L45.0707 15.8484C45.8631 15.2145 47.0139 15.9202 46.8083 16.9138L48.7669 17.319ZM39.3155 42.666C41.7655 42.666 43.8787 40.9453 44.3751 38.5461L42.4165 38.1409C42.1123 39.6113 40.8172 40.666 39.3155 40.666V42.666ZM5.62505 38.5461C6.12143 40.9453 8.23457 42.666 10.6846 42.666V40.666C9.18295 40.666 7.88781 39.6113 7.58357 38.1409L5.62505 38.5461ZM3.19177 16.9138C2.98618 15.9202 4.13704 15.2145 4.92939 15.8484L6.17878 14.2866C3.92365 12.4825 0.648124 14.4909 1.23324 17.319L3.19177 16.9138Z" fill="#407D80"/>
</svg>
