<svg width="50" height="50" viewBox="0 0 50 50" fill="none" xmlns="http://www.w3.org/2000/svg">
<path d="M18.7622 22.5563C18.3717 22.1658 17.7385 22.1658 17.348 22.5563C16.9575 22.9469 16.9575 23.58 17.348 23.9706L18.7622 22.5563ZM24.9996 30.2079L24.2925 30.915C24.683 31.3055 25.3161 31.3055 25.7067 30.915L24.9996 30.2079ZM41.3317 15.29C41.7222 14.8995 41.7222 14.2663 41.3317 13.8758C40.9412 13.4853 40.308 13.4853 39.9175 13.8758L41.3317 15.29ZM34.8701 9.82844C35.3327 10.1301 35.9523 9.99957 36.2539 9.53694C36.5555 9.07431 36.425 8.45474 35.9624 8.15309L34.8701 9.82844ZM44.7654 21.3467C44.6657 20.8035 44.1444 20.444 43.6012 20.5438C43.058 20.6436 42.6986 21.1648 42.7984 21.708L44.7654 21.3467ZM17.348 23.9706L24.2925 30.915L25.7067 29.5008L18.7622 22.5563L17.348 23.9706ZM25.7067 30.915L41.3317 15.29L39.9175 13.8758L24.2925 29.5008L25.7067 30.915ZM43.0968 24.9996C43.0968 34.9944 34.9944 43.0968 24.9996 43.0968V45.0968C36.099 45.0968 45.0968 36.099 45.0968 24.9996H43.0968ZM24.9996 43.0968C15.0047 43.0968 6.90234 34.9944 6.90234 24.9996H4.90234C4.90234 36.099 13.9002 45.0968 24.9996 45.0968V43.0968ZM6.90234 24.9996C6.90234 15.0047 15.0047 6.90234 24.9996 6.90234V4.90234C13.9002 4.90234 4.90234 13.9002 4.90234 24.9996H6.90234ZM24.9996 6.90234C28.6428 6.90234 32.0318 7.97786 34.8701 9.82844L35.9624 8.15309C32.8091 6.09711 29.0424 4.90234 24.9996 4.90234V6.90234ZM42.7984 21.708C42.9943 22.7747 43.0968 23.8747 43.0968 24.9996H45.0968C45.0968 23.7529 44.9832 22.532 44.7654 21.3467L42.7984 21.708Z" fill="#407D80"/>
</svg>
