<svg width="25" height="24" viewBox="0 0 25 24" fill="none" xmlns="http://www.w3.org/2000/svg">
<g clip-path="url(#clip0_419_355)">
<path d="M1.5 13C0.947716 13 0.5 12.5523 0.5 12C0.5 11.4477 0.947716 11 1.5 11V13ZM23.5 12L24.2071 11.2929C24.5976 11.6834 24.5976 12.3166 24.2071 12.7071L23.5 12ZM16.7929 6.70711C16.4024 6.31658 16.4024 5.68342 16.7929 5.29289C17.1834 4.90237 17.8166 4.90237 18.2071 5.29289L16.7929 6.70711ZM18.2071 18.7071C17.8166 19.0976 17.1834 19.0976 16.7929 18.7071C16.4024 18.3166 16.4024 17.6834 16.7929 17.2929L18.2071 18.7071ZM1.5 11H23.5V13H1.5V11ZM22.7929 12.7071L16.7929 6.70711L18.2071 5.29289L24.2071 11.2929L22.7929 12.7071ZM24.2071 12.7071L18.2071 18.7071L16.7929 17.2929L22.7929 11.2929L24.2071 12.7071Z" fill="#98855C"/>
</g>
<defs>
<clipPath id="clip0_419_355">
<rect width="24" height="24" fill="white" transform="translate(0.5)"/>
</clipPath>
</defs>
</svg>
