<svg width="24" height="24" viewBox="0 0 24 24" fill="none" xmlns="http://www.w3.org/2000/svg">
<path d="M3.79215 7.76632L2.799 7.64948L3.79215 7.76632ZM2.26274 20.7663L3.25589 20.8832V20.8832L2.26274 20.7663ZM21.7372 20.7663L20.744 20.8832V20.8832L21.7372 20.7663ZM20.2078 7.76632L21.2009 7.64948V7.64948L20.2078 7.76632ZM6.99996 8C6.99996 8.55228 7.44767 9 7.99996 9C8.55224 9 8.99996 8.55228 8.99996 8H6.99996ZM15 8C15 8.55228 15.4477 9 16 9C16.5522 9 17 8.55228 17 8H15ZM2.799 7.64948L1.26959 20.6495L3.25589 20.8832L4.7853 7.88316L2.799 7.64948ZM4.24904 24H19.7509V22H4.24904V24ZM22.7303 20.6495L21.2009 7.64948L19.2146 7.88316L20.744 20.8832L22.7303 20.6495ZM18.2215 5H16V7H18.2215V5ZM16 5H7.99996V7H16V5ZM7.99996 5H5.77846V7H7.99996V5ZM8.99996 8V6H6.99996V8H8.99996ZM8.99996 6V5H6.99996V6H8.99996ZM15 5V6H17V5H15ZM15 6V8H17V6H15ZM12 2C13.6568 2 15 3.34315 15 5H17C17 2.23858 14.7614 0 12 0V2ZM21.2009 7.64948C21.0232 6.13864 19.7427 5 18.2215 5V7C18.7285 7 19.1554 7.37955 19.2146 7.88316L21.2009 7.64948ZM19.7509 24C21.5466 24 22.9401 22.433 22.7303 20.6495L20.744 20.8832C20.814 21.4777 20.3495 22 19.7509 22V24ZM1.26959 20.6495C1.05977 22.433 2.45326 24 4.24904 24V22C3.65045 22 3.18595 21.4777 3.25589 20.8832L1.26959 20.6495ZM8.99996 5C8.99996 3.34315 10.3431 2 12 2V0C9.23853 0 6.99996 2.23858 6.99996 5H8.99996ZM4.7853 7.88316C4.84455 7.37955 5.27137 7 5.77846 7V5C4.2572 5 2.97675 6.13864 2.799 7.64948L4.7853 7.88316Z" fill="#407D80"/>
</svg>