<svg width="34" height="34" viewBox="0 0 34 34" fill="none" xmlns="http://www.w3.org/2000/svg">
<path d="M17 32.5C8.43959 32.5 1.5 25.5604 1.5 17H0.5C0.5 26.1127 7.8873 33.5 17 33.5V32.5ZM1.5 17C1.5 8.43959 8.43959 1.5 17 1.5V0.5C7.8873 0.5 0.5 7.8873 0.5 17H1.5ZM17 1.5C25.5604 1.5 32.5 8.43959 32.5 17H33.5C33.5 7.8873 26.1127 0.5 17 0.5V1.5ZM32.5 17C32.5 25.5604 25.5604 32.5 17 32.5V33.5C26.1127 33.5 33.5 26.1127 33.5 17H32.5Z" fill="#407D80"/>
<path d="M14.3389 20.2558L14.0666 24.3343C14.4666 24.3343 14.6434 24.1514 14.8666 23.9343L16.7884 22.0656L20.7866 25.0195C21.5224 25.4255 22.0535 25.2153 22.2368 24.3364L24.8614 11.968C25.1301 10.8906 24.4507 10.402 23.7468 10.7215L8.33484 16.6643C7.28283 17.0863 7.28896 17.6732 8.14308 17.9347L12.0981 19.1692L21.2545 13.3925C21.6868 13.1304 22.0835 13.2713 21.7579 13.5603L14.3386 20.2556L14.3389 20.2558Z" fill="#407D80"/>
</svg>