<svg width="24" height="24" viewBox="0 0 24 24" fill="none" xmlns="http://www.w3.org/2000/svg">
<path d="M16.0404 9.37442C16.4309 8.9839 16.4309 8.35074 16.0404 7.96021C15.6498 7.56969 15.0167 7.56969 14.6261 7.96021L16.0404 9.37442ZM7.95948 14.6269C7.56895 15.0174 7.56895 15.6506 7.95948 16.0411C8.35 16.4316 8.98317 16.4316 9.37369 16.0411L7.95948 14.6269ZM9.37369 7.96021C8.98317 7.56969 8.35 7.56969 7.95948 7.96021C7.56895 8.35074 7.56895 8.9839 7.95948 9.37442L9.37369 7.96021ZM14.6261 16.0411C15.0167 16.4316 15.6498 16.4316 16.0404 16.0411C16.4309 15.6506 16.4309 15.0174 16.0404 14.6269L14.6261 16.0411ZM14.6261 7.96021L11.2928 11.2935L12.707 12.7078L16.0404 9.37442L14.6261 7.96021ZM11.2928 11.2935L7.95948 14.6269L9.37369 16.0411L12.707 12.7078L11.2928 11.2935ZM7.95948 9.37442L11.2928 12.7078L12.707 11.2935L9.37369 7.96021L7.95948 9.37442ZM11.2928 12.7078L14.6261 16.0411L16.0404 14.6269L12.707 11.2935L11.2928 12.7078ZM20.1666 12.0007C20.1666 16.511 16.5102 20.1673 11.9999 20.1673V22.1673C17.6148 22.1673 22.1666 17.6155 22.1666 12.0007H20.1666ZM11.9999 20.1673C7.48959 20.1673 3.83325 16.511 3.83325 12.0007H1.83325C1.83325 17.6155 6.38502 22.1673 11.9999 22.1673V20.1673ZM3.83325 12.0007C3.83325 7.49033 7.48959 3.83398 11.9999 3.83398V1.83398C6.38502 1.83398 1.83325 6.38576 1.83325 12.0007H3.83325ZM11.9999 3.83398C16.5102 3.83398 20.1666 7.49033 20.1666 12.0007H22.1666C22.1666 6.38576 17.6148 1.83398 11.9999 1.83398V3.83398Z" fill="#949999"/>
</svg>
