<svg width="24" height="24" viewBox="0 0 24 24" fill="none" xmlns="http://www.w3.org/2000/svg">
<path d="M12 4.88611L11.3804 5.67106L12 6.16009L12.6196 5.67106L12 4.88611ZM12.6401 4.38084L13.2597 5.16578V5.16578L12.6401 4.38084ZM21.4192 13.2348L22.1513 13.916H22.1513L21.4192 13.2348ZM2.58084 13.2348L1.84872 13.916H1.84872L2.58084 13.2348ZM11.3599 4.38084L11.9794 3.5959L11.9794 3.5959L11.3599 4.38084ZM21.1457 4.84563L21.848 4.13379V4.13379L21.1457 4.84563ZM12.6196 5.67106L13.2597 5.16578L12.0206 3.5959L11.3804 4.10117L12.6196 5.67106ZM20.687 12.5536C19.0812 14.2796 17.21 16.1918 15.5253 17.6658C14.6811 18.4044 13.9062 19.0131 13.2503 19.4314C12.5444 19.8817 12.1437 20 12 20V22C12.7692 22 13.5988 21.5814 14.3258 21.1177C15.1027 20.6221 15.9633 19.94 16.8422 19.171C18.6037 17.6298 20.5293 15.6593 22.1513 13.916L20.687 12.5536ZM12 20C11.8563 20 11.4556 19.8817 10.7497 19.4314C10.0938 19.0131 9.31887 18.4044 8.47473 17.6658C6.79001 16.1918 4.91884 14.2796 3.31296 12.5536L1.84872 13.916C3.47075 15.6593 5.39629 17.6298 7.15775 19.171C8.0367 19.94 8.89726 20.6221 9.67422 21.1177C10.4012 21.5814 11.2308 22 12 22V20ZM10.7403 5.16578L11.3804 5.67106L12.6196 4.10117L11.9794 3.5959L10.7403 5.16578ZM3.55667 5.55747C5.49781 3.64224 8.59425 3.47187 10.7403 5.16578L11.9794 3.5959C9.04322 1.27829 4.81301 1.50829 2.15199 4.13379L3.55667 5.55747ZM3.31296 12.5536C1.46708 10.5697 1.5854 7.50242 3.55667 5.55747L2.15199 4.13379C-0.54805 6.79778 -0.772883 11.0983 1.84872 13.916L3.31296 12.5536ZM20.4433 5.55747C22.4146 7.50242 22.5329 10.5697 20.687 12.5536L22.1513 13.916C24.7729 11.0983 24.548 6.79778 21.848 4.13379L20.4433 5.55747ZM13.2597 5.16578C15.4058 3.47187 18.5022 3.64224 20.4433 5.55747L21.848 4.13379C19.187 1.50829 14.9568 1.27829 12.0206 3.5959L13.2597 5.16578Z" fill="#407D80"/>
</svg>